HIERARCHY
ROOT mixamorig:Hips
{
	OFFSET -0.000008 104.274872 1.554316
	CHANNELS 6 Xposition Yposition Zposition Xrotation Yrotation Zrotation
	JOINT mixamorig:Spine
	{
		OFFSET -0.000005 10.181595 0.131519
		CHANNELS 6 Xposition Yposition Zposition Xrotation Yrotation Zrotation
		JOINT mixamorig:Spine1
		{
			OFFSET -0.000000 9.893959 -1.470707
			CHANNELS 6 Xposition Yposition Zposition Xrotation Yrotation Zrotation
			JOINT mixamorig:Spine2
			{
				OFFSET -0.000000 9.220757 -1.370641
				CHANNELS 6 Xposition Yposition Zposition Xrotation Yrotation Zrotation
				JOINT mixamorig:Neck
				{
					OFFSET 0.000001 16.740417 -2.049036
					CHANNELS 6 Xposition Yposition Zposition Xrotation Yrotation Zrotation
					JOINT mixamorig:Head
					{
						OFFSET 0.000000 9.617874 1.685006
						CHANNELS 6 Xposition Yposition Zposition Xrotation Yrotation Zrotation
						JOINT mixamorig:HeadTop_End
						{
							OFFSET 0.000002 22.037354 7.501101
							CHANNELS 6 Xposition Yposition Zposition Xrotation Yrotation Zrotation
							End Site
							{
								OFFSET 0.000168 2310.654297 -282.823242
							}
						}
					}
				}
				JOINT mixamorig:RightShoulder
				{
					OFFSET -4.569970 11.014908 -2.160885
					CHANNELS 6 Xposition Yposition Zposition Xrotation Yrotation Zrotation
					JOINT mixamorig:RightArm
					{
						OFFSET -10.592851 -0.524811 -2.232101
						CHANNELS 6 Xposition Yposition Zposition Xrotation Yrotation Zrotation
						JOINT mixamorig:RightForeArm
						{
							OFFSET -27.841511 0.000031 -0.000004
							CHANNELS 6 Xposition Yposition Zposition Xrotation Yrotation Zrotation
							JOINT mixamorig:RightHand
							{
								OFFSET -28.328831 -0.000015 0.000015
								CHANNELS 6 Xposition Yposition Zposition Xrotation Yrotation Zrotation
								JOINT mixamorig:RightHandThumb1
								{
									OFFSET -2.464806 -1.573990 2.681852
									CHANNELS 6 Xposition Yposition Zposition Xrotation Yrotation Zrotation
									JOINT mixamorig:RightHandThumb2
									{
										OFFSET -3.215179 -1.872803 1.924282
										CHANNELS 6 Xposition Yposition Zposition Xrotation Yrotation Zrotation
										JOINT mixamorig:RightHandThumb3
										{
											OFFSET -2.654831 -1.527969 1.512609
											CHANNELS 6 Xposition Yposition Zposition Xrotation Yrotation Zrotation
											JOINT mixamorig:RightHandThumb4
											{
												OFFSET -2.018814 -1.152008 1.108052
												CHANNELS 6 Xposition Yposition Zposition Xrotation Yrotation Zrotation
												End Site
												{
													OFFSET -188.809540 -114.533607 132.431396
												}
											}
										}
									}
								}
								JOINT mixamorig:RightHandIndex1
								{
									OFFSET -9.108284 -0.517868 2.259835
									CHANNELS 6 Xposition Yposition Zposition Xrotation Yrotation Zrotation
									JOINT mixamorig:RightHandIndex2
									{
										OFFSET -3.699989 0.000000 0.001215
										CHANNELS 6 Xposition Yposition Zposition Xrotation Yrotation Zrotation
										JOINT mixamorig:RightHandIndex3
										{
											OFFSET -2.850006 0.000031 -0.000522
											CHANNELS 6 Xposition Yposition Zposition Xrotation Yrotation Zrotation
											JOINT mixamorig:RightHandIndex4
											{
												OFFSET -2.772186 -0.000015 -0.000020
												CHANNELS 6 Xposition Yposition Zposition Xrotation Yrotation Zrotation
												End Site
												{
													OFFSET -277.218445 0.000000 -0.050231
												}
											}
										}
									}
								}
								JOINT mixamorig:RightHandMiddle1
								{
									OFFSET -9.532516 -0.000031 -0.000023
									CHANNELS 6 Xposition Yposition Zposition Xrotation Yrotation Zrotation
									JOINT mixamorig:RightHandMiddle2
									{
										OFFSET -3.700005 -0.000015 0.003713
										CHANNELS 6 Xposition Yposition Zposition Xrotation Yrotation Zrotation
										JOINT mixamorig:RightHandMiddle3
										{
											OFFSET -2.949974 0.000015 -0.002054
											CHANNELS 6 Xposition Yposition Zposition Xrotation Yrotation Zrotation
											JOINT mixamorig:RightHandMiddle4
											{
												OFFSET -2.946640 0.000000 -0.000156
												CHANNELS 6 Xposition Yposition Zposition Xrotation Yrotation Zrotation
												End Site
												{
													OFFSET -294.664337 0.000000 -0.113670
												}
											}
										}
									}
								}
								JOINT mixamorig:RightHandRing1
								{
									OFFSET -9.103600 -0.043076 -1.865134
									CHANNELS 6 Xposition Yposition Zposition Xrotation Yrotation Zrotation
									JOINT mixamorig:RightHandRing2
									{
										OFFSET -3.379288 0.000000 -0.001055
										CHANNELS 6 Xposition Yposition Zposition Xrotation Yrotation Zrotation
										JOINT mixamorig:RightHandRing3
										{
											OFFSET -2.889687 -0.000015 0.000379
											CHANNELS 6 Xposition Yposition Zposition Xrotation Yrotation Zrotation
											JOINT mixamorig:RightHandRing4
											{
												OFFSET -2.638809 -0.000015 0.000941
												CHANNELS 6 Xposition Yposition Zposition Xrotation Yrotation Zrotation
												End Site
												{
													OFFSET -263.880371 0.000000 0.516020
												}
											}
										}
									}
								}
								JOINT mixamorig:RightHandPinky1
								{
									OFFSET -8.076683 -0.486710 -3.806280
									CHANNELS 6 Xposition Yposition Zposition Xrotation Yrotation Zrotation
									JOINT mixamorig:RightHandPinky2
									{
										OFFSET -3.600014 -0.000015 -0.003747
										CHANNELS 6 Xposition Yposition Zposition Xrotation Yrotation Zrotation
										JOINT mixamorig:RightHandPinky3
										{
											OFFSET -2.099983 0.000000 -0.005739
											CHANNELS 6 Xposition Yposition Zposition Xrotation Yrotation Zrotation
											JOINT mixamorig:RightHandPinky4
											{
												OFFSET -2.115768 -0.000031 -0.003680
												CHANNELS 6 Xposition Yposition Zposition Xrotation Yrotation Zrotation
												End Site
												{
													OFFSET -211.577087 0.000000 -0.350686
												}
											}
										}
									}
								}
							}
						}
					}
				}
				JOINT mixamorig:LeftShoulder
				{
					OFFSET 4.570447 11.014725 -2.160855
					CHANNELS 6 Xposition Yposition Zposition Xrotation Yrotation Zrotation
					JOINT mixamorig:LeftArm
					{
						OFFSET 10.592371 -0.524597 -2.232119
						CHANNELS 6 Xposition Yposition Zposition Xrotation Yrotation Zrotation
						JOINT mixamorig:LeftForeArm
						{
							OFFSET 27.841532 -0.000031 0.000026
							CHANNELS 6 Xposition Yposition Zposition Xrotation Yrotation Zrotation
							JOINT mixamorig:LeftHand
							{
								OFFSET 28.328846 -0.000061 0.000022
								CHANNELS 6 Xposition Yposition Zposition Xrotation Yrotation Zrotation
								JOINT mixamorig:LeftHandThumb1
								{
									OFFSET 2.466141 -1.576172 2.681732
									CHANNELS 6 Xposition Yposition Zposition Xrotation Yrotation Zrotation
									JOINT mixamorig:LeftHandThumb2
									{
										OFFSET 3.217812 -1.872070 1.916482
										CHANNELS 6 Xposition Yposition Zposition Xrotation Yrotation Zrotation
										JOINT mixamorig:LeftHandThumb3
										{
											OFFSET 2.656029 -1.528778 1.514513
											CHANNELS 6 Xposition Yposition Zposition Xrotation Yrotation Zrotation
											JOINT mixamorig:LeftHandThumb4
											{
												OFFSET 2.020889 -1.154053 1.115139
												CHANNELS 6 Xposition Yposition Zposition Xrotation Yrotation Zrotation
												End Site
												{
													OFFSET 190.885437 -115.081749 130.048782
												}
											}
										}
									}
								}
								JOINT mixamorig:LeftHandIndex1
								{
									OFFSET 9.109314 -0.518021 2.259871
									CHANNELS 6 Xposition Yposition Zposition Xrotation Yrotation Zrotation
									JOINT mixamorig:LeftHandIndex2
									{
										OFFSET 3.699989 0.000000 -0.000322
										CHANNELS 6 Xposition Yposition Zposition Xrotation Yrotation Zrotation
										JOINT mixamorig:LeftHandIndex3
										{
											OFFSET 2.850006 0.000000 0.000352
											CHANNELS 6 Xposition Yposition Zposition Xrotation Yrotation Zrotation
											JOINT mixamorig:LeftHandIndex4
											{
												OFFSET 2.774864 -0.000031 -0.000027
												CHANNELS 6 Xposition Yposition Zposition Xrotation Yrotation Zrotation
												End Site
												{
													OFFSET 277.486267 0.000000 -0.009857
												}
											}
										}
									}
								}
								JOINT mixamorig:LeftHandMiddle1
								{
									OFFSET 9.533394 0.000061 0.000044
									CHANNELS 6 Xposition Yposition Zposition Xrotation Yrotation Zrotation
									JOINT mixamorig:LeftHandMiddle2
									{
										OFFSET 3.699989 -0.000015 -0.000231
										CHANNELS 6 Xposition Yposition Zposition Xrotation Yrotation Zrotation
										JOINT mixamorig:LeftHandMiddle3
										{
											OFFSET 2.949997 -0.000015 -0.000059
											CHANNELS 6 Xposition Yposition Zposition Xrotation Yrotation Zrotation
											JOINT mixamorig:LeftHandMiddle4
											{
												OFFSET 2.952896 0.000031 0.000063
												CHANNELS 6 Xposition Yposition Zposition Xrotation Yrotation Zrotation
												End Site
												{
													OFFSET 295.289337 0.000000 0.022810
												}
											}
										}
									}
								}
								JOINT mixamorig:LeftHandRing1
								{
									OFFSET 9.104523 -0.042999 -1.865074
									CHANNELS 6 Xposition Yposition Zposition Xrotation Yrotation Zrotation
									JOINT mixamorig:LeftHandRing2
									{
										OFFSET 3.150009 -0.000031 0.000043
										CHANNELS 6 Xposition Yposition Zposition Xrotation Yrotation Zrotation
										JOINT mixamorig:LeftHandRing3
										{
											OFFSET 2.949982 -0.000015 0.000040
											CHANNELS 6 Xposition Yposition Zposition Xrotation Yrotation Zrotation
											JOINT mixamorig:LeftHandRing4
											{
												OFFSET 2.644348 0.000000 0.000057
												CHANNELS 6 Xposition Yposition Zposition Xrotation Yrotation Zrotation
												End Site
												{
													OFFSET 264.434631 0.000000 0.012105
												}
											}
										}
									}
								}
								JOINT mixamorig:LeftHandPinky1
								{
									OFFSET 8.077789 -0.486847 -3.806259
									CHANNELS 6 Xposition Yposition Zposition Xrotation Yrotation Zrotation
									JOINT mixamorig:LeftHandPinky2
									{
										OFFSET 3.599953 0.000031 0.014727
										CHANNELS 6 Xposition Yposition Zposition Xrotation Yrotation Zrotation
										JOINT mixamorig:LeftHandPinky3
										{
											OFFSET 2.100021 0.000015 0.007705
											CHANNELS 6 Xposition Yposition Zposition Xrotation Yrotation Zrotation
											JOINT mixamorig:LeftHandPinky4
											{
												OFFSET 2.125504 0.000031 0.007517
												CHANNELS 6 Xposition Yposition Zposition Xrotation Yrotation Zrotation
												End Site
												{
													OFFSET 212.550781 0.000000 0.625752
												}
											}
										}
									}
								}
							}
						}
					}
				}
			}
		}
	}
	JOINT mixamorig:RightUpLeg
	{
		OFFSET -8.207787 -6.751648 -1.599560
		CHANNELS 6 Xposition Yposition Zposition Xrotation Yrotation Zrotation
		JOINT mixamorig:RightLeg
		{
			OFFSET -0.000002 -44.370117 0.345942
			CHANNELS 6 Xposition Yposition Zposition Xrotation Yrotation Zrotation
			JOINT mixamorig:RightFoot
			{
				OFFSET 0.000003 -44.423679 -3.043532
				CHANNELS 6 Xposition Yposition Zposition Xrotation Yrotation Zrotation
				JOINT mixamorig:RightToeBase
				{
					OFFSET -0.000002 -8.728671 10.710558
					CHANNELS 6 Xposition Yposition Zposition Xrotation Yrotation Zrotation
					JOINT mixamorig:RightToe_End
					{
						OFFSET -0.000001 -0.000679 9.278119
						CHANNELS 6 Xposition Yposition Zposition Xrotation Yrotation Zrotation
						End Site
						{
							OFFSET 0.000000 -0.067690 927.812134
						}
					}
				}
			}
		}
	}
	JOINT mixamorig:LeftUpLeg
	{
		OFFSET 8.207793 -6.751686 -1.599556
		CHANNELS 6 Xposition Yposition Zposition Xrotation Yrotation Zrotation
		JOINT mixamorig:LeftLeg
		{
			OFFSET -0.000004 -44.370014 0.346954
			CHANNELS 6 Xposition Yposition Zposition Xrotation Yrotation Zrotation
			JOINT mixamorig:LeftFoot
			{
				OFFSET -0.000001 -44.423672 -3.044401
				CHANNELS 6 Xposition Yposition Zposition Xrotation Yrotation Zrotation
				JOINT mixamorig:LeftToeBase
				{
					OFFSET -0.000002 -8.728669 10.710558
					CHANNELS 6 Xposition Yposition Zposition Xrotation Yrotation Zrotation
					JOINT mixamorig:LeftToe_End
					{
						OFFSET -0.000003 -0.000679 9.278133
						CHANNELS 6 Xposition Yposition Zposition Xrotation Yrotation Zrotation
						End Site
						{
							OFFSET 0.000000 -0.068021 927.813477
						}
					}
				}
			}
		}
	}
}
MOTION
Frames: 3
Frame Time: 0.033333
0.000006 104.270477 1.554256 0.000010 0.000003 -0.000113 -0.000005 10.181587 0.131522 0.000001 -0.000003 0.000084 -0.000000 9.893967 -1.470711 0.000001 0.000000 -0.000000 -0.000000 9.220802 -1.370642 0.000000 -0.000000 -0.000000 0.000001 16.740433 -2.049030 0.000000 -0.000000 -0.000000 0.000000 9.617859 1.685014 0.000000 0.000000 0.000000 0.000002 22.037384 7.501101 0.000000 -0.000000 0.000000 -4.569968 11.014880 -2.160881 0.000008 0.000001 -0.000038 -10.592868 -0.524677 -2.232031 71.831276 7.518262 -5.449170 -27.841537 0.000025 0.000534 -59.443211 119.638249 88.938304 -28.328827 0.000023 0.000026 -0.000318 -0.000046 0.000006 -2.464431 -1.573883 2.682397 -33.963679 -157.169702 20.888887 -3.215260 -1.872562 1.924644 157.769379 33.671832 12.647250 -2.654942 -1.527925 1.513117 151.588194 24.666415 -46.776083 -2.018830 -1.151983 1.108057 -0.000006 -0.000002 0.000000 -9.108393 -0.517584 2.260166 107.404574 20.011358 -27.077916 -3.700074 0.000306 0.001557 104.450477 16.383667 -21.015025 -2.850095 0.000362 -0.000233 103.428557 12.036656 -15.213970 -2.772164 0.000001 -0.000018 -0.000000 0.000001 -0.000003 -9.532613 0.000246 0.000295 100.356079 19.901132 -23.938929 -3.700079 0.000318 0.004008 101.394882 13.278975 -16.069902 -2.950066 0.000342 -0.001779 102.063715 10.529880 -12.990169 -2.946637 0.000013 -0.000153 0.000000 0.000000 0.000002 -9.103727 -0.042771 -1.864829 101.739650 19.953694 -24.346179 -3.379312 0.000343 -0.000784 102.731885 8.001954 -10.023749 -2.889729 0.000382 0.000667 106.386057 3.952466 -5.338779 -2.638806 -0.000012 0.000940 -0.000000 0.000001 -0.000001 -8.076771 -0.486390 -3.805986 94.355450 20.956648 -22.405433 -3.600016 0.000292 -0.003460 101.536991 8.213640 -9.617776 -2.099994 0.000352 -0.005415 103.385172 3.273587 -3.875046 -2.115763 -0.000071 -0.003682 -0.000002 0.000001 -0.000005 4.570446 11.014691 -2.160851 -0.000018 0.000010 -0.000021 10.592361 -0.524524 -2.232274 71.421280 7.540019 -5.423890 27.841841 0.000112 -0.000231 104.986428 -62.971353 77.178050 28.328833 -0.000027 0.000021 0.000018 -0.000089 -0.000000 2.465997 -1.576165 2.681909 -39.208861 159.298330 -9.729727 3.217786 -1.871731 1.916359 153.491139 -31.700578 -5.369758 2.656096 -1.528619 1.514446 140.831179 -27.945999 38.629907 2.020899 -1.154071 1.115149 0.000003 0.000001 0.000002 9.109373 -0.517866 2.259737 83.433978 -16.386560 14.617885 3.700047 0.000130 -0.000470 80.144989 -18.820743 15.889906 2.850061 0.000169 0.000225 78.239885 -15.317369 12.480962 2.774878 -0.000024 -0.000026 -0.000003 -0.000002 0.000001 9.533463 0.000200 -0.000087 82.545951 -14.290545 12.549856 3.700049 0.000158 -0.000349 86.348713 -17.202590 16.151640 2.950067 0.000137 -0.000188 83.497471 -20.255805 18.119249 2.952852 -0.000032 0.000062 0.000000 -0.000000 0.000002 9.104589 -0.042858 -1.865216 81.595516 -14.380837 12.430494 3.150055 0.000193 -0.000086 87.985206 -15.885849 15.345307 2.950035 0.000166 -0.000061 86.062118 -17.055180 15.938332 2.644328 0.000048 0.000056 -0.000002 -0.000000 0.000002 8.077833 -0.486739 -3.806381 72.038804 -16.738999 12.647086 3.599999 0.000173 0.014565 72.660317 -14.665340 11.197673 2.100044 0.000151 0.007576 75.341583 -13.610789 10.911495 2.125499 -0.000018 0.007512 0.000000 -0.000000 -0.000001 -8.207786 -6.751667 -1.599560 -0.077001 -0.000003 0.000080 -0.000002 -44.370110 0.345938 0.153719 -0.000000 -0.000000 0.000000 -44.423679 -3.043532 -0.076700 0.000000 -0.000002 -0.000006 -8.728667 10.710559 -0.000009 -0.000000 -0.000000 -0.000001 -0.000679 9.278123 0.000000 -0.000000 -0.000000 8.207792 -6.751710 -1.599556 -0.074518 -0.000003 0.000081 -0.000002 -44.370014 0.346960 0.148822 0.000002 0.000000 -0.000001 -44.423664 -3.044403 -0.074314 0.000000 -0.000002 -0.000004 -8.728671 10.710558 0.000007 -0.000000 -0.000000 0.000000 -0.000680 9.278137 -0.000000 0.000000 -0.000001 
0.000006 104.270477 1.554256 0.000010 0.000003 -0.000113 -0.000005 10.181587 0.131522 0.000001 -0.000003 0.000084 -0.000000 9.893967 -1.470711 0.000001 0.000000 -0.000000 -0.000000 9.220802 -1.370642 0.000000 -0.000000 -0.000000 0.000001 16.740433 -2.049030 0.000000 -0.000000 -0.000000 0.000000 9.617859 1.685014 0.000000 0.000000 0.000000 0.000002 22.037384 7.501101 0.000000 -0.000000 0.000000 -4.569968 11.014880 -2.160881 0.000008 0.000001 -0.000038 -10.592873 -0.524688 -2.232017 70.934424 9.832251 -7.013277 -27.841530 0.000013 0.000552 -58.234610 117.890636 85.536590 -28.328812 0.000007 0.000023 -0.000320 -0.000043 0.000006 -2.464415 -1.573827 2.682347 -41.070914 -157.153610 5.232730 -3.215273 -1.872541 1.924644 155.176051 32.418410 8.226809 -2.654957 -1.527863 1.513084 147.245683 26.888783 -36.985266 -2.018830 -1.152001 1.108059 -0.000002 -0.000002 0.000000 -9.108396 -0.517567 2.260150 107.235678 15.521017 -21.021405 -3.700059 0.000315 0.001558 103.982848 12.279074 -15.643874 -2.850077 0.000367 -0.000222 103.607945 8.967349 -11.381678 -2.772157 -0.000017 -0.000021 -0.000001 0.000000 -0.000002 -9.532604 0.000258 0.000265 99.242970 17.044483 -20.154509 -3.700056 0.000339 0.003995 99.849531 11.428851 -13.454124 -2.950052 0.000337 -0.001766 102.874595 9.754286 -12.209726 -2.946641 0.000003 -0.000160 0.000002 0.000000 -0.000002 -9.103716 -0.042759 -1.864833 98.513383 18.485074 -21.341903 -3.379327 0.000336 -0.000782 101.251428 8.060974 -9.835448 -2.889756 0.000354 0.000666 108.137604 4.818065 -6.705859 -2.638812 -0.000012 0.000945 0.000000 -0.000001 0.000001 -8.076768 -0.486384 -3.805985 93.265161 18.649169 -19.561375 -3.600026 0.000309 -0.003477 98.677382 7.055412 -7.804699 -2.100005 0.000331 -0.005429 103.753026 2.591912 -3.035307 -2.115762 -0.000053 -0.003676 0.000001 -0.000002 -0.000005 4.570446 11.014691 -2.160851 -0.000018 0.000010 -0.000021 10.592356 -0.524551 -2.232253 71.237336 16.927244 -12.170029 27.841843 0.000099 -0.000212 105.753492 -65.480785 80.693378 28.328815 -0.000028 0.000022 0.000021 -0.000087 -0.000000 2.466240 -1.576069 2.681832 5.909996 167.363171 -97.874418 3.217824 -1.871738 1.916383 166.121539 -27.804226 16.956414 2.656105 -1.528680 1.514484 142.037499 -26.552094 57.600433 2.020887 -1.154086 1.115138 0.000000 0.000001 0.000004 9.109377 -0.517881 2.259724 85.079753 -21.078691 19.364473 3.700043 0.000139 -0.000471 80.977206 -13.844851 11.850098 2.850021 0.000185 0.000199 80.019286 -10.998419 9.239224 2.774882 -0.000033 -0.000025 -0.000002 0.000001 -0.000001 9.533458 0.000196 -0.000089 84.012413 -19.412545 17.506176 3.700032 0.000169 -0.000371 85.519993 -11.574731 10.706128 2.950053 0.000175 -0.000213 86.450968 -11.695416 10.999713 2.952859 -0.000032 0.000062 -0.000000 0.000003 0.000002 9.104581 -0.042865 -1.865222 83.393318 -19.040711 16.996601 3.150054 0.000203 -0.000113 86.801500 -11.463676 10.846465 2.950030 0.000204 -0.000087 87.999003 -9.915247 9.578151 2.644326 0.000016 0.000058 0.000000 0.000000 -0.000000 8.077833 -0.486741 -3.806392 74.943779 -20.194132 16.019722 3.600010 0.000158 0.014583 74.972978 -15.840336 12.587243 2.100047 0.000159 0.007548 77.015062 -11.670456 9.682239 2.125499 -0.000033 0.007516 0.000006 -0.000001 -0.000001 -8.207786 -6.751667 -1.599560 -0.077001 -0.000003 0.000080 -0.000002 -44.370110 0.345938 0.153719 -0.000000 -0.000000 0.000000 -44.423679 -3.043532 -0.076700 0.000000 -0.000002 -0.000006 -8.728667 10.710559 -0.000009 -0.000000 -0.000000 -0.000001 -0.000679 9.278123 0.000000 -0.000000 -0.000000 8.207792 -6.751710 -1.599556 -0.074518 -0.000003 0.000081 -0.000002 -44.370014 0.346960 0.148822 0.000002 0.000000 -0.000001 -44.423664 -3.044403 -0.074314 0.000000 -0.000002 -0.000004 -8.728671 10.710558 0.000007 -0.000000 -0.000000 0.000000 -0.000680 9.278137 -0.000000 0.000000 -0.000001 
0.000006 104.270477 1.554256 0.000010 0.000003 -0.000113 -0.000005 10.181587 0.131522 0.000001 -0.000003 0.000084 -0.000000 9.893967 -1.470711 0.000001 0.000000 -0.000000 -0.000000 9.220802 -1.370642 0.000000 -0.000000 -0.000000 0.000001 16.740433 -2.049030 0.000000 -0.000000 -0.000000 0.000000 9.617859 1.685014 0.000000 0.000000 0.000000 0.000002 22.037384 7.501101 0.000000 -0.000000 0.000000 -4.569968 11.014880 -2.160881 0.000008 0.000001 -0.000038 -10.592876 -0.524689 -2.232014 71.157983 10.992739 -7.875731 -27.841534 0.000004 0.000532 -56.886368 116.130619 81.985138 -28.328836 0.000007 0.000023 -0.000317 -0.000046 0.000007 -2.464400 -1.573826 2.682348 -41.510956 -157.876421 4.463662 -3.215283 -1.872562 1.924649 154.642450 32.627035 10.021866 -2.654949 -1.527895 1.513074 147.888376 26.925792 -35.382641 -2.018831 -1.151992 1.108052 -0.000005 -0.000002 0.000004 -9.108367 -0.517558 2.260149 107.642374 15.474851 -21.112711 -3.700064 0.000324 0.001550 104.769884 12.009367 -15.517181 -2.850066 0.000380 -0.000231 104.040276 8.775967 -11.225675 -2.772170 0.000000 -0.000015 -0.000001 -0.000000 -0.000001 -9.532600 0.000262 0.000274 99.485373 16.973249 -20.155854 -3.700063 0.000340 0.004007 100.204899 11.373675 -13.472675 -2.950045 0.000339 -0.001777 102.493682 9.928298 -12.343321 -2.946612 0.000004 -0.000159 0.000002 -0.000000 0.000001 -9.103701 -0.042766 -1.864834 97.955650 18.298222 -20.924805 -3.379327 0.000312 -0.000774 101.141878 8.322273 -10.133470 -2.889748 0.000350 0.000710 107.744417 5.069483 -7.001856 -2.638805 -0.000018 0.000934 0.000001 -0.000001 0.000001 -8.076748 -0.486388 -3.806006 92.245536 18.369784 -18.932885 -3.600039 0.000286 -0.003483 98.161792 7.521240 -8.268467 -2.100003 0.000327 -0.005429 103.468828 3.184254 -3.768034 -2.115771 -0.000040 -0.003678 0.000003 0.000000 -0.000002 4.570446 11.014691 -2.160851 -0.000018 0.000010 -0.000021 10.592359 -0.524538 -2.232275 71.257410 13.802032 -9.914984 27.841846 0.000096 -0.000225 106.128477 -66.336512 82.005614 28.328817 -0.000029 0.000020 0.000021 -0.000087 -0.000000 2.466249 -1.576012 2.681820 10.387597 171.293795 -107.341580 3.217830 -1.871768 1.916394 167.064296 -26.651441 21.095290 2.656122 -1.528657 1.514493 141.921577 -26.547149 58.365196 2.020884 -1.154054 1.115133 -0.000000 0.000005 0.000002 9.109388 -0.517878 2.259725 86.064229 -22.122564 20.673401 3.700054 0.000143 -0.000481 81.226228 -14.179268 12.189929 2.850043 0.000171 0.000199 80.018999 -11.222800 9.428032 2.774876 -0.000020 -0.000027 0.000001 -0.000000 0.000001 9.533466 0.000185 -0.000102 84.312497 -20.601082 18.678993 3.700034 0.000175 -0.000367 85.425579 -11.875848 10.966951 2.950054 0.000179 -0.000200 86.443660 -11.778720 11.076686 2.952862 -0.000017 0.000059 -0.000001 0.000002 0.000001 9.104585 -0.042865 -1.865227 83.315932 -20.298825 18.099998 3.150053 0.000193 -0.000098 86.847843 -12.069211 11.428956 2.950025 0.000183 -0.000097 87.826097 -10.145584 9.771290 2.644335 0.000041 0.000060 0.000000 -0.000001 -0.000001 8.077842 -0.486742 -3.806405 74.868046 -21.026877 16.647910 3.599995 0.000172 0.014576 75.596855 -16.511200 13.255821 2.100029 0.000156 0.007541 77.923012 -12.160507 10.239838 2.125513 0.000001 0.007516 -0.000002 -0.000001 -0.000004 -8.207786 -6.751667 -1.599560 -0.077001 -0.000003 0.000080 -0.000002 -44.370110 0.345938 0.153719 -0.000000 -0.000000 0.000000 -44.423679 -3.043532 -0.076700 0.000000 -0.000002 -0.000006 -8.728667 10.710559 -0.000009 -0.000000 -0.000000 -0.000001 -0.000679 9.278123 0.000000 -0.000000 -0.000000 8.207792 -6.751710 -1.599556 -0.074518 -0.000003 0.000081 -0.000002 -44.370014 0.346960 0.148822 0.000002 0.000000 -0.000001 -44.423664 -3.044403 -0.074314 0.000000 -0.000002 -0.000004 -8.728671 10.710558 0.000007 -0.000000 -0.000000 0.000000 -0.000680 9.278137 -0.000000 0.000000 -0.000001 
